<svg version="1.1" id="Layer_1" xmlns="http://www.w3.org/2000/svg" xmlns:xlink="http://www.w3.org/1999/xlink" x="0px" y="0px"
	 width="100%" viewBox="0 0 1024 1024" enable-background="new 0 0 1024 1024" xml:space="preserve">
<path fill="#1B2D3B" opacity="1.000000" stroke="none" 
	d="
M669.000000,1025.000000 
	C446.000000,1025.000000 223.500000,1025.000000 1.000000,1025.000000 
	C1.000000,683.666687 1.000000,342.333344 1.000000,1.000000 
	C342.333344,1.000000 683.666687,1.000000 1025.000000,1.000000 
	C1025.000000,342.333344 1025.000000,683.666687 1025.000000,1025.000000 
	C906.500000,1025.000000 788.000000,1025.000000 669.000000,1025.000000 
M501.018463,262.120758 
	C500.862427,261.513275 500.879822,260.513611 500.524628,260.356506 
	C494.212036,257.564636 490.043976,260.296600 489.689087,267.314545 
	C489.634766,268.388519 489.188782,269.436829 489.009918,270.511322 
	C487.328186,280.614288 485.365631,290.683868 484.129913,300.841675 
	C483.558197,305.541321 481.236023,306.925415 477.139191,307.706573 
	C472.328064,308.623871 467.476074,309.786102 462.944366,311.598602 
	C456.590576,314.139801 452.836304,313.717163 448.300476,308.583771 
	C440.510742,299.767731 432.695251,290.971191 425.093018,281.995026 
	C423.219177,279.782562 422.259094,279.537354 419.749176,281.318024 
	C414.051147,285.360565 407.927155,288.800690 401.996613,292.518036 
	C396.460510,295.988068 390.950562,299.499847 385.397430,303.013306 
	C391.687836,317.315125 397.566956,330.500275 403.193756,343.792206 
	C403.686432,344.956085 402.968140,347.187439 402.053680,348.298492 
	C397.496033,353.835663 391.773193,358.634155 388.233337,364.723236 
	C385.052826,370.194092 381.034027,369.299713 377.023529,368.380005 
	C365.245758,365.679016 353.600189,362.404144 341.891449,359.398499 
	C338.599396,358.553436 336.306915,360.164886 335.072083,362.995728 
	C330.314178,373.902985 325.550018,384.814270 321.199768,395.885803 
	C320.480103,397.717468 321.040710,401.647888 322.325439,402.420441 
	C333.164154,408.938263 344.402802,414.786499 355.328064,421.166748 
	C362.350800,425.267914 361.488464,423.541901 359.046631,431.299438 
	C356.936951,431.198883 354.839630,430.962067 352.750977,431.022797 
	C343.152618,431.301727 333.556519,431.928253 323.959869,431.923035 
	C313.990326,431.917633 304.023163,431.156708 294.051270,431.038940 
	C280.054321,430.873596 266.046082,430.703400 252.057129,431.076538 
	C236.882721,431.481293 222.243790,433.465118 211.230408,446.030731 
	C206.349304,451.599762 202.584244,457.608490 201.119202,464.641968 
	C198.522293,477.109344 198.232834,489.738953 199.916275,502.447357 
	C200.962296,510.343842 202.748260,517.816833 208.336975,523.740906 
	C211.525406,527.120605 211.210022,529.433899 207.977554,532.763123 
	C204.781952,536.054382 201.493469,540.017700 200.235657,544.274170 
	C197.359940,554.005798 198.694702,564.134216 201.223465,573.731812 
	C203.155746,581.065613 207.118988,587.665161 213.184433,592.872131 
	C217.180969,596.302979 224.013901,598.553345 220.982773,606.239563 
	C220.397659,607.723328 219.356125,609.092163 219.066284,610.616882 
	C216.943542,621.783386 214.971863,632.978455 212.927246,644.159973 
	C209.964706,660.361389 206.905701,676.545532 204.027466,692.761902 
	C201.208923,708.641968 199.033768,724.651428 195.719040,740.424011 
	C192.071533,757.779907 201.748993,767.577148 217.467438,767.862854 
	C228.669525,768.066528 239.903366,767.092041 251.104202,766.356445 
	C253.604797,766.192200 256.277466,765.242188 258.436554,763.936035 
	C264.418762,760.316833 266.744995,754.329468 268.026215,747.779602 
	C268.467865,745.522095 269.208740,743.323120 269.812927,741.097412 
	C271.663940,744.031921 272.305389,746.855042 273.003357,749.664062 
	C275.681244,760.441345 281.068695,766.695557 291.691040,766.880432 
	C320.180450,767.376404 348.680664,767.415405 377.175537,767.318604 
	C384.214630,767.294739 390.705566,765.155945 394.085144,757.899048 
	C394.592682,756.809143 395.706696,756.001648 396.971344,754.578247 
	C402.580750,765.749207 412.027740,767.200562 422.965393,767.142395 
	C479.450439,766.842102 535.938049,767.057068 592.424377,766.923401 
	C598.419128,766.909241 604.399902,765.606689 610.407776,765.241638 
	C616.486938,764.872375 620.511353,761.900269 622.821594,756.455261 
	C623.978821,753.727844 624.880310,750.891907 626.255920,747.122925 
	C627.704895,750.205200 628.766785,752.640198 629.975159,755.000183 
	C633.184387,761.268005 637.796631,765.772644 645.248962,766.112427 
	C654.285278,766.524353 663.330505,766.908386 672.373901,766.963867 
	C692.704834,767.088501 713.038635,767.148926 733.368286,766.942749 
	C743.936890,766.835571 750.790100,761.349792 753.031128,751.215027 
	C753.823486,747.631531 754.982971,744.129150 755.974792,740.589783 
	C757.598389,743.962830 758.497681,747.090759 758.957153,750.282043 
	C760.299255,759.604980 767.977783,767.208191 778.291748,767.045959 
	C790.129028,766.859680 801.973145,766.883789 813.811218,767.042603 
	C822.344055,767.157104 831.771606,758.124146 830.918091,749.640198 
	C829.955200,740.069031 828.509705,730.536011 826.968628,721.035950 
	C824.884277,708.187744 822.465698,695.394165 820.270813,682.563416 
	C818.128967,670.042236 816.269409,657.470154 813.952698,644.982239 
	C811.555725,632.061584 808.653198,619.235168 806.204468,606.323364 
	C805.537292,602.805908 803.135010,599.453186 808.780823,596.210510 
	C816.350586,591.862854 821.564453,584.178345 823.760498,575.652893 
	C825.780457,567.810974 826.736145,559.515381 826.863770,551.399231 
	C827.248840,526.907166 826.974243,502.405182 827.015747,477.907196 
	C827.034424,466.906860 823.957947,456.773407 816.847900,448.521515 
	C807.499451,437.671875 795.309753,431.180847 780.822449,431.108795 
	C743.883911,430.925018 706.942505,431.288391 670.002502,431.477753 
	C667.655884,431.489777 665.331970,431.072449 665.364014,428.490143 
	C665.384766,426.815582 666.625427,424.472443 668.040222,423.606842 
	C679.540833,416.570221 691.167725,409.735565 702.858887,403.018188 
	C706.109741,401.150391 707.404602,399.119568 705.303101,395.678223 
	C704.179932,393.838867 702.909119,392.047302 702.084229,390.075500 
	C698.301331,381.032623 694.736084,371.898102 690.896606,362.879974 
	C689.930359,360.610474 688.250977,359.177124 685.159119,359.925446 
	C673.687927,362.701752 662.162109,365.255920 650.636292,367.800659 
	C646.346436,368.747772 642.067505,370.418762 638.363525,365.828278 
	C633.581726,359.901947 628.278687,354.398163 623.317993,348.611298 
	C622.768738,347.970551 622.588379,346.506531 622.915222,345.698822 
	C627.166992,335.192627 631.997314,324.896912 635.763916,314.224213 
	C640.003601,302.210876 643.448059,303.943604 629.567627,295.783173 
	C626.007751,293.690277 622.700500,291.169312 619.153259,289.052826 
	C613.588989,285.732910 607.919250,282.589630 602.426025,279.446930 
	C597.745972,284.713226 593.509216,289.307800 589.472412,294.071747 
	C585.412598,298.862915 581.834656,304.094147 577.501587,308.610718 
	C574.729980,311.499756 571.850159,315.090729 566.438660,312.192688 
	C562.676514,310.178009 558.191956,309.110992 553.908936,308.555450 
	C545.527954,307.468384 540.511719,305.115448 540.475281,294.704773 
	C540.437683,283.931488 537.231750,273.169281 535.406982,262.374481 
	C533.755066,261.597595 531.880310,260.715881 530.002319,259.014465 
	C533.084839,251.419785 536.083252,243.789230 539.300476,236.252045 
	C540.280151,233.956909 541.862793,231.919174 543.169312,229.763565 
	C523.819763,234.466614 509.860474,245.479660 501.018463,262.120758 
z"/>
<path fill="#E8D4BB" opacity="1.000000" stroke="none" 
	d="
M530.005493,259.834137 
	C531.880310,260.715881 533.755066,261.597595 535.406982,262.374481 
	C537.231750,273.169281 540.437683,283.931488 540.475281,294.704773 
	C540.511719,305.115448 545.527954,307.468384 553.908936,308.555450 
	C558.191956,309.110992 562.676514,310.178009 566.438660,312.192688 
	C571.850159,315.090729 574.729980,311.499756 577.501587,308.610718 
	C581.834656,304.094147 585.412598,298.862915 589.472412,294.071747 
	C593.509216,289.307800 597.745972,284.713226 602.426025,279.446930 
	C607.919250,282.589630 613.588989,285.732910 619.153259,289.052826 
	C622.700500,291.169312 626.007751,293.690277 629.567627,295.783173 
	C643.448059,303.943604 640.003601,302.210876 635.763916,314.224213 
	C631.997314,324.896912 627.166992,335.192627 622.915222,345.698822 
	C622.588379,346.506531 622.768738,347.970551 623.317993,348.611298 
	C628.278687,354.398163 633.581726,359.901947 638.363525,365.828278 
	C642.067505,370.418762 646.346436,368.747772 650.636292,367.800659 
	C662.162109,365.255920 673.687927,362.701752 685.159119,359.925446 
	C688.250977,359.177124 689.930359,360.610474 690.896606,362.879974 
	C694.736084,371.898102 698.301331,381.032623 702.084229,390.075500 
	C702.909119,392.047302 704.179932,393.838867 705.303101,395.678223 
	C707.404602,399.119568 706.109741,401.150391 702.858887,403.018188 
	C691.167725,409.735565 679.540833,416.570221 668.040222,423.606842 
	C666.625427,424.472443 665.384766,426.815582 665.364014,428.490143 
	C665.331970,431.072449 667.655884,431.489777 670.002502,431.477753 
	C706.942505,431.288391 743.883911,430.925018 780.822449,431.108795 
	C795.309753,431.180847 807.499451,437.671875 816.847900,448.521515 
	C823.957947,456.773407 827.034424,466.906860 827.015747,477.907196 
	C826.974243,502.405182 827.248840,526.907166 826.863770,551.399231 
	C826.736145,559.515381 825.780457,567.810974 823.760498,575.652893 
	C821.564453,584.178345 816.350586,591.862854 808.780823,596.210510 
	C803.135010,599.453186 805.537292,602.805908 806.204468,606.323364 
	C808.653198,619.235168 811.555725,632.061584 813.952698,644.982239 
	C816.269409,657.470154 818.128967,670.042236 820.270813,682.563416 
	C822.465698,695.394165 824.884277,708.187744 826.968628,721.035950 
	C828.509705,730.536011 829.955200,740.069031 830.918091,749.640198 
	C831.771606,758.124146 822.344055,767.157104 813.811218,767.042603 
	C801.973145,766.883789 790.129028,766.859680 778.291748,767.045959 
	C767.977783,767.208191 760.299255,759.604980 758.957153,750.282043 
	C758.497681,747.090759 757.598389,743.962830 755.974792,740.589783 
	C754.982971,744.129150 753.823486,747.631531 753.031128,751.215027 
	C750.790100,761.349792 743.936890,766.835571 733.368286,766.942749 
	C713.038635,767.148926 692.704834,767.088501 672.373901,766.963867 
	C663.330505,766.908386 654.285278,766.524353 645.248962,766.112427 
	C637.796631,765.772644 633.184387,761.268005 629.975159,755.000183 
	C628.766785,752.640198 627.704895,750.205200 626.255920,747.122925 
	C624.880310,750.891907 623.978821,753.727844 622.821594,756.455261 
	C620.511353,761.900269 616.486938,764.872375 610.407776,765.241638 
	C604.399902,765.606689 598.419128,766.909241 592.424377,766.923401 
	C535.938049,767.057068 479.450439,766.842102 422.965393,767.142395 
	C412.027740,767.200562 402.580750,765.749207 396.971344,754.578247 
	C395.706696,756.001648 394.592682,756.809143 394.085144,757.899048 
	C390.705566,765.155945 384.214630,767.294739 377.175537,767.318604 
	C348.680664,767.415405 320.180450,767.376404 291.691040,766.880432 
	C281.068695,766.695557 275.681244,760.441345 273.003357,749.664062 
	C272.305389,746.855042 271.663940,744.031921 269.812927,741.097412 
	C269.208740,743.323120 268.467865,745.522095 268.026215,747.779602 
	C266.744995,754.329468 264.418762,760.316833 258.436554,763.936035 
	C256.277466,765.242188 253.604797,766.192200 251.104202,766.356445 
	C239.903366,767.092041 228.669525,768.066528 217.467438,767.862854 
	C201.748993,767.577148 192.071533,757.779907 195.719040,740.424011 
	C199.033768,724.651428 201.208923,708.641968 204.027466,692.761902 
	C206.905701,676.545532 209.964706,660.361389 212.927246,644.159973 
	C214.971863,632.978455 216.943542,621.783386 219.066284,610.616882 
	C219.356125,609.092163 220.397659,607.723328 220.982773,606.239563 
	C224.013901,598.553345 217.180969,596.302979 213.184433,592.872131 
	C207.118988,587.665161 203.155746,581.065613 201.223465,573.731812 
	C198.694702,564.134216 197.359940,554.005798 200.235657,544.274170 
	C201.493469,540.017700 204.781952,536.054382 207.977554,532.763123 
	C211.210022,529.433899 211.525406,527.120605 208.336975,523.740906 
	C202.748260,517.816833 200.962296,510.343842 199.916275,502.447357 
	C198.232834,489.738953 198.522293,477.109344 201.119202,464.641968 
	C202.584244,457.608490 206.349304,451.599762 211.230408,446.030731 
	C222.243790,433.465118 236.882721,431.481293 252.057129,431.076538 
	C266.046082,430.703400 280.054321,430.873596 294.051270,431.038940 
	C304.023163,431.156708 313.990326,431.917633 323.959869,431.923035 
	C333.556519,431.928253 343.152618,431.301727 352.750977,431.022797 
	C354.839630,430.962067 356.936951,431.198883 359.046631,431.299438 
	C361.488464,423.541901 362.350800,425.267914 355.328064,421.166748 
	C344.402802,414.786499 333.164154,408.938263 322.325439,402.420441 
	C321.040710,401.647888 320.480103,397.717468 321.199768,395.885803 
	C325.550018,384.814270 330.314178,373.902985 335.072083,362.995728 
	C336.306915,360.164886 338.599396,358.553436 341.891449,359.398499 
	C353.600189,362.404144 365.245758,365.679016 377.023529,368.380005 
	C381.034027,369.299713 385.052826,370.194092 388.233337,364.723236 
	C391.773193,358.634155 397.496033,353.835663 402.053680,348.298492 
	C402.968140,347.187439 403.686432,344.956085 403.193756,343.792206 
	C397.566956,330.500275 391.687836,317.315125 385.397430,303.013306 
	C390.950562,299.499847 396.460510,295.988068 401.996613,292.518036 
	C407.927155,288.800690 414.051147,285.360565 419.749176,281.318024 
	C422.259094,279.537354 423.219177,279.782562 425.093018,281.995026 
	C432.695251,290.971191 440.510742,299.767731 448.300476,308.583771 
	C452.836304,313.717163 456.590576,314.139801 462.944366,311.598602 
	C467.476074,309.786102 472.328064,308.623871 477.139191,307.706573 
	C481.236023,306.925415 483.558197,305.541321 484.129913,300.841675 
	C485.365631,290.683868 487.328186,280.614288 489.009918,270.511322 
	C489.188782,269.436829 489.634766,268.388519 489.689087,267.314545 
	C490.043976,260.296600 494.212036,257.564636 500.524628,260.356506 
	C500.879822,260.513611 500.862427,261.513275 500.922211,262.875610 
	C499.660065,266.342987 498.114136,268.959259 497.398376,271.785736 
	C495.101074,280.857544 492.090912,289.916748 491.273071,299.150665 
	C490.355133,309.514313 491.685577,320.062683 491.702057,330.531189 
	C491.707947,334.283386 491.296906,338.230560 490.085297,341.747314 
	C487.978302,347.863007 482.926880,348.971466 478.584167,344.267700 
	C475.940338,341.404053 473.660492,337.884369 472.271057,334.255829 
	C470.053558,328.464691 468.713684,322.337494 466.871582,315.893799 
	C466.102081,316.582428 465.101624,317.132019 464.607880,317.977539 
	C462.019318,322.409943 459.116608,326.732025 457.146606,331.437256 
	C453.063538,341.189453 449.499817,351.159088 445.455078,361.203949 
	C421.755157,378.840546 407.171234,401.783356 401.582947,431.018066 
	C422.218597,431.018066 442.136902,431.018066 462.518951,431.048645 
	C468.661041,430.980743 474.339325,430.882233 480.477661,430.856689 
	C505.304169,430.925720 529.670593,430.921783 554.503784,430.956726 
	C558.508850,430.974701 562.047302,430.953766 566.003662,430.970001 
	C585.634399,431.007172 604.847168,431.007172 624.349792,431.007172 
	C621.910034,413.365387 615.277283,398.151398 604.960754,384.591400 
	C598.332031,375.878662 591.224121,367.516785 581.471375,361.550598 
	C578.352417,348.537537 574.401550,336.214783 567.337097,325.119720 
	C565.801025,322.707397 564.043945,320.435883 562.472656,318.218079 
	C559.047607,326.904205 555.820129,335.089264 552.592651,343.274323 
	C552.070740,343.187469 551.548828,343.100647 551.026855,343.013794 
	C548.282471,338.510895 545.511658,334.023804 542.798401,329.502167 
	C533.498108,314.003265 526.021851,297.902130 525.704956,279.313446 
	C525.587585,272.430237 526.011902,265.763947 530.005493,259.834137 
M463.000793,576.466064 
	C463.000732,578.631775 462.999451,580.797485 463.000916,582.963196 
	C463.005524,589.805481 464.929321,591.708496 471.934967,591.704468 
	C479.264893,591.700195 486.595123,591.686340 493.924622,591.613403 
	C500.732452,591.545593 502.944153,589.365540 502.957458,582.636658 
	C502.986816,567.809937 502.954681,552.983093 502.948425,538.156311 
	C502.946838,534.449097 502.948181,530.741943 502.948181,527.034729 
	C505.057861,529.055969 506.202759,531.205322 507.310211,533.373779 
	C515.988831,550.367188 524.763000,567.313049 533.272034,584.390930 
	C535.859070,589.583191 539.212585,592.281860 545.326416,591.932922 
	C552.964966,591.497070 560.648010,591.898071 568.309814,591.792297 
	C573.901672,591.715149 576.971191,588.663330 576.975952,583.124023 
	C577.013245,539.975891 577.011719,496.827728 576.981934,453.679565 
	C576.978088,448.041260 574.810059,445.920685 569.071411,445.841400 
	C561.742554,445.740143 554.411438,445.714111 547.082153,445.770569 
	C539.302490,445.830505 537.272339,447.906281 537.281250,455.563995 
	C537.301025,472.555725 537.344360,489.547455 537.352722,506.539185 
	C537.353333,507.841125 537.154297,509.143158 536.961182,511.509857 
	C535.921631,509.661407 535.491699,508.963623 535.124451,508.234283 
	C525.496155,489.112518 515.809082,470.019775 506.308990,450.834442 
	C504.519073,447.219727 502.216553,445.738647 498.134247,445.859802 
	C489.646790,446.111725 481.145294,445.886078 472.649567,445.867096 
	C464.763153,445.849487 463.003113,447.608582 463.002411,455.528687 
	C462.998901,495.511536 463.000763,535.494385 463.000793,576.466064 
M571.011963,648.500061 
	C571.008301,680.319458 571.003479,712.138916 571.001892,743.958313 
	C571.001587,751.178162 572.750305,752.908875 580.171509,752.949402 
	C587.501343,752.989380 594.831543,752.996155 602.161560,752.993042 
	C608.891602,752.990173 610.999451,750.871826 610.989014,744.012451 
	C610.961853,726.187683 610.892212,708.362915 610.859802,690.538147 
	C610.857971,689.529846 611.038391,688.521179 611.240051,686.393555 
	C612.882996,689.486084 613.993530,691.492798 615.028503,693.537659 
	C624.098877,711.458069 633.029419,729.451538 642.365051,747.232422 
	C643.630615,749.642700 646.813171,752.429016 649.267578,752.588501 
	C658.888977,753.213989 668.576904,752.992676 678.234802,752.808411 
	C683.300781,752.711792 685.730713,749.832214 685.646179,744.812378 
	C685.570496,740.316406 685.357300,735.821655 685.345154,731.325928 
	C685.240540,692.511414 685.168823,653.696777 685.084167,614.882202 
	C685.069580,608.214905 683.833557,606.883484 677.337830,606.826782 
	C670.175110,606.764282 663.011414,606.819214 655.848145,606.802124 
	C647.341187,606.781860 645.850525,608.202515 645.864258,616.568237 
	C645.892700,633.893372 645.960022,651.218506 645.984375,668.543640 
	C645.985962,669.679932 645.758728,670.816528 645.527161,672.994995 
	C642.992981,668.118896 640.953064,664.317139 639.023682,660.460022 
	C631.166992,644.753235 623.187805,629.104553 615.601807,613.267639 
	C613.246765,608.351257 610.151367,606.466919 604.738342,606.739441 
	C596.596802,607.149414 588.419067,606.796875 580.257385,606.860779 
	C573.032227,606.917297 571.026917,608.974548 571.027771,616.014526 
	C571.029053,626.509705 571.016541,637.004822 571.011963,648.500061 
M341.342163,615.040955 
	C341.259491,658.190186 341.182159,701.339355 341.087708,744.488586 
	C341.075226,750.188904 343.429962,752.838867 349.140350,752.917786 
	C357.634796,753.035278 366.132141,752.938171 374.628235,752.951050 
	C381.217377,752.960999 383.668671,750.626892 383.697235,743.962708 
	C383.752991,730.967896 383.701965,717.972595 383.724792,704.977539 
	C383.727539,703.423462 383.914459,701.869690 384.016022,700.315735 
	C386.286743,702.268311 387.668732,704.435425 388.829132,706.715393 
	C395.608063,720.034912 402.309174,733.394043 409.099518,746.707642 
	C410.608490,749.666260 412.107208,752.796814 416.216400,752.805237 
	C426.711884,752.826721 437.210999,753.027649 447.701355,752.807800 
	C452.856445,752.699768 455.225494,748.392578 453.021973,743.674683 
	C451.337830,740.068909 449.386322,736.583557 447.462524,733.094910 
	C440.912567,721.216980 434.322235,709.361389 427.571808,697.180542 
	C429.745239,696.361755 431.433197,695.745361 433.106873,695.092224 
	C444.580017,690.615295 450.792084,681.759155 450.985626,669.465088 
	C451.072174,663.968506 451.033264,658.469177 450.994720,652.971558 
	C450.944550,645.813660 451.667999,638.528015 450.585968,631.524841 
	C448.214569,616.176453 436.636688,607.223267 419.504181,607.056946 
	C396.181946,606.830505 372.855835,607.028931 349.531525,606.975098 
	C344.562836,606.963684 341.568451,608.902954 341.342163,615.040955 
M812.175232,536.500061 
	C812.116577,515.850647 812.243774,495.198456 811.932251,474.552887 
	C811.733337,461.372253 801.199768,447.968903 789.204956,447.265991 
	C769.664124,446.120941 750.007263,445.555695 730.462341,446.332031 
	C715.396423,446.930511 704.885742,459.025085 704.015259,474.004822 
	C703.561707,481.810242 703.394958,489.643341 703.414429,497.463135 
	C703.468750,519.271484 703.093079,541.105286 704.039795,562.878906 
	C704.734314,578.851135 713.714966,588.345337 729.402954,590.999756 
	C748.227600,594.184998 767.246765,594.130493 786.050415,590.839050 
	C802.004761,588.046387 811.410889,576.378296 811.966064,559.977417 
	C812.219421,552.491211 812.116211,544.992920 812.175232,536.500061 
M430.952271,458.610596 
	C430.590240,456.483307 430.370270,454.319489 429.833984,452.237061 
	C428.964966,448.862671 427.503357,445.809937 423.352631,445.801697 
	C402.204407,445.759674 381.055817,445.733795 359.907959,445.833557 
	C355.939178,445.852264 353.488190,448.123688 352.831757,452.163788 
	C351.926300,457.736359 350.964966,463.299805 350.050751,468.871002 
	C343.811462,506.893188 337.592712,544.918701 331.326447,582.936462 
	C330.449646,588.255981 332.636993,591.504578 338.059357,591.596741 
	C347.880798,591.763611 357.710938,591.663269 367.532867,591.456360 
	C372.624420,591.349121 374.523010,589.188843 375.028137,584.059448 
	C375.517059,579.094849 376.209320,574.149475 376.651855,569.181396 
	C376.944550,565.894836 378.627380,564.507324 381.831268,564.530396 
	C388.491516,564.578491 395.152679,564.588806 401.812805,564.534241 
	C405.313416,564.505554 406.819031,566.087097 407.063995,569.616211 
	C407.408966,574.586975 408.373169,579.513367 408.760315,584.483032 
	C409.125580,589.171631 411.618896,591.492493 416.080017,591.563660 
	C425.735657,591.717957 435.398163,591.823181 445.050873,591.618774 
	C449.877289,591.516541 452.199646,588.564575 451.868622,583.743713 
	C451.663849,580.761108 451.328705,577.773743 450.824402,574.827454 
	C444.242126,536.370728 437.619202,497.920990 430.952271,458.610596 
M274.430267,726.999268 
	C275.762817,726.999268 277.095337,726.997803 278.427887,726.999512 
	C285.385101,727.008484 285.501282,727.139160 286.182343,734.209534 
	C286.596954,738.513794 287.016052,742.820007 287.571259,747.107483 
	C288.042145,750.744263 290.220245,752.854309 293.911438,752.887329 
	C304.237244,752.979797 314.567261,753.080566 324.889618,752.876282 
	C329.794342,752.779236 331.955811,749.822998 331.150879,744.915649 
	C329.861328,737.053894 328.366943,729.225952 327.029968,721.371704 
	C320.955658,685.687256 314.916412,649.996887 308.836975,614.313354 
	C307.865479,608.611267 305.908173,607.006104 300.177521,607.003235 
	C281.188873,606.993835 262.200226,607.006958 243.211563,606.997437 
	C234.870209,606.993225 233.416031,608.189209 232.123856,616.282715 
	C231.940704,617.429810 231.895859,618.599976 231.693771,619.742920 
	C224.408188,660.950134 217.100983,702.153564 209.827591,743.362976 
	C208.724991,749.609985 211.456680,752.936768 217.734390,752.981140 
	C226.728394,753.044617 235.723251,752.998474 244.717712,752.979126 
	C250.603256,752.966492 253.208435,750.685242 253.729370,744.731689 
	C254.033508,741.255615 253.852829,737.739929 254.019409,734.248291 
	C254.306671,728.227722 255.598526,727.011047 261.459259,727.000610 
	C265.456879,726.993469 269.454468,726.999268 274.430267,726.999268 
M719.018677,609.531128 
	C718.354370,611.208252 717.359009,612.831482 717.075928,614.570679 
	C713.475342,636.691956 710.031128,658.838562 706.437012,680.960876 
	C703.027466,701.947144 699.437988,722.904114 696.035706,743.891541 
	C694.996033,750.304932 697.362305,752.940002 703.794800,752.969238 
	C712.956909,753.010864 722.119629,753.041138 731.281433,752.977478 
	C736.136230,752.943726 738.601318,750.637878 739.070496,745.821716 
	C739.473816,741.680969 739.756714,737.527893 740.054077,733.377502 
	C740.358582,729.126892 741.960938,726.647949 746.873657,726.918091 
	C753.018921,727.256042 759.204407,727.188416 765.358093,726.939209 
	C769.910950,726.754822 771.656494,728.972351 772.004761,733.098450 
	C772.368408,737.406189 772.760925,741.715515 773.307312,746.002869 
	C773.900635,750.657410 776.498474,753.034058 781.375671,752.985535 
	C790.536865,752.894470 799.700195,753.035095 808.862000,752.981140 
	C815.594177,752.941528 817.885498,749.692627 816.629150,742.962891 
	C812.667358,721.741089 808.776245,700.505371 805.012695,679.247559 
	C801.190674,657.659607 797.592590,636.031982 793.806763,614.437500 
	C792.826355,608.844971 790.273499,606.980103 784.528503,606.970642 
	C765.372192,606.939148 746.215454,606.806274 727.060242,606.933289 
	C724.569092,606.949768 722.086426,608.259033 719.018677,609.531128 
M277.487152,445.000153 
	C265.840271,445.335938 254.163727,445.262085 242.553482,446.103455 
	C225.107956,447.367676 214.652771,458.483673 213.916855,475.887054 
	C213.656662,482.040497 214.118881,488.230621 213.732941,494.371399 
	C212.739517,510.177917 220.741959,519.879028 234.687256,525.262634 
	C246.587845,529.856934 258.795380,533.651367 270.737793,538.143616 
	C280.147186,541.682983 281.357452,544.013123 281.032715,553.797058 
	C280.896332,557.906616 278.982880,559.962463 274.922974,560.004761 
	C270.258606,560.053345 265.589325,559.914734 260.930023,560.079529 
	C256.391083,560.239990 254.607437,557.878784 254.542572,553.716980 
	C254.519257,552.220520 254.723740,550.720764 254.703735,549.224060 
	C254.648727,545.107178 253.083755,542.789062 248.399460,542.898865 
	C239.408508,543.109741 230.407852,542.886292 221.411224,542.882996 
	C216.074234,542.881042 214.005478,544.945312 213.909500,550.440796 
	C213.848450,553.937256 213.985443,557.436829 213.995026,560.935059 
	C214.037933,576.593567 221.389328,586.555969 236.708817,589.936768 
	C257.102234,594.437256 277.787109,594.088867 298.246918,590.606812 
	C312.700226,588.147034 320.951447,579.480774 322.654755,565.939087 
	C323.687866,557.725647 323.525970,549.327332 323.447327,541.016418 
	C323.315948,527.136353 315.830475,518.012512 303.640045,512.502869 
	C296.699554,509.365997 289.526733,506.731628 282.406250,504.007660 
	C275.282318,501.282379 267.989075,498.974396 260.968292,496.013458 
	C256.038177,493.934265 254.296463,488.423798 255.961426,482.319489 
	C257.276031,477.499603 261.274170,478.096741 264.896851,478.028351 
	C266.728485,477.993774 268.562042,478.046539 270.394531,478.073212 
	C279.679596,478.208252 280.413544,478.860321 280.437317,487.941559 
	C280.446777,491.550446 281.946014,493.888824 285.557526,493.931946 
	C295.551056,494.051270 305.553955,494.074005 315.540497,493.747711 
	C319.482208,493.618866 321.962128,491.115570 321.868744,486.851288 
	C321.752075,481.526184 321.843994,476.170166 321.286652,470.886444 
	C320.062500,459.281067 313.610138,451.196686 302.544067,448.155914 
	C294.817383,446.032745 286.522186,445.978485 277.487152,445.000153 
M506.215546,698.951965 
	C506.301208,695.392578 509.024139,695.737671 511.263763,695.722717 
	C521.261963,695.655945 531.260986,695.722656 541.259583,695.698730 
	C548.180481,695.682190 549.909912,693.996887 549.960999,687.273926 
	C550.002747,681.774841 550.002563,676.275391 549.992859,670.776062 
	C549.980774,663.935730 548.776733,662.736816 541.731750,662.677795 
	C534.732971,662.619141 527.733643,662.645264 520.734619,662.605713 
	C505.985443,662.522339 505.985504,662.514648 506.032867,647.677917 
	C506.052246,641.617371 506.595703,641.020752 512.532532,641.008972 
	C525.364197,640.983459 538.196045,641.016663 551.027771,640.994263 
	C556.756348,640.984253 558.947998,638.938171 559.017822,633.377563 
	C559.097351,627.046448 559.082031,620.712585 558.993042,614.381470 
	C558.923340,609.420105 556.660400,606.934753 551.744263,606.926880 
	C524.582153,606.883484 497.419891,606.955994 470.257660,607.007996 
	C465.811798,607.016479 463.470093,609.421631 463.212463,613.749146 
	C463.044525,616.570740 463.207947,619.411560 463.209717,622.243774 
	C463.235168,662.738647 463.248627,703.233459 463.291718,743.728333 
	C463.298767,750.346130 465.251923,752.791992 471.103180,752.813599 
	C498.098663,752.913391 525.094788,752.916626 552.090393,752.838379 
	C557.069336,752.823975 559.332153,750.335144 559.363647,745.322388 
	C559.402344,739.157837 559.283386,732.991638 559.183228,726.826965 
	C559.070923,719.906738 557.783813,718.633972 550.982727,718.638550 
	C538.151184,718.647156 525.316040,718.500732 512.490051,718.777161 
	C507.624817,718.882080 505.840668,717.123718 506.142395,712.373962 
	C506.406006,708.224854 506.189026,704.045227 506.215546,698.951965 
M685.829651,445.994690 
	C676.675720,445.860901 667.522095,445.700897 658.367798,445.601166 
	C650.304565,445.513306 648.997498,446.813385 648.997620,454.662201 
	C648.998108,486.633453 649.017700,518.604736 648.974121,550.575928 
	C648.965088,557.210693 646.807373,559.329224 640.397400,559.470276 
	C632.312622,559.648254 629.544067,557.551453 629.295471,550.857910 
	C629.141052,546.699463 629.127319,542.532715 629.170471,538.370911 
	C629.215027,534.071106 627.359070,531.902649 622.890503,531.948364 
	C613.566467,532.043701 604.240540,531.937012 594.916382,532.024231 
	C590.149292,532.068787 588.017700,534.232727 587.970154,539.095032 
	C587.895264,546.753601 587.803406,554.419556 588.045471,562.072083 
	C588.599670,579.599854 598.874084,590.894104 616.445190,591.854248 
	C631.015808,592.650452 645.711609,592.744446 660.267883,591.822510 
	C679.529114,590.602417 690.733459,578.584167 690.891235,559.319580 
	C691.180420,524.022949 690.942261,488.720520 690.619934,453.423279 
	C690.597534,450.973785 688.062744,448.547302 685.829651,445.994690 
z"/>
<path fill="#E36436" opacity="1.000000" stroke="none" 
	d="
M530.003906,259.424316 
	C526.011902,265.763947 525.587585,272.430237 525.704956,279.313446 
	C526.021851,297.902130 533.498108,314.003265 542.798401,329.502167 
	C545.511658,334.023804 548.282471,338.510895 551.026855,343.013794 
	C551.548828,343.100647 552.070740,343.187469 552.592651,343.274323 
	C555.820129,335.089264 559.047607,326.904205 562.472656,318.218079 
	C564.043945,320.435883 565.801025,322.707397 567.337097,325.119720 
	C574.401550,336.214783 578.352417,348.537537 581.470947,362.005981 
	C585.703979,387.737946 581.877808,410.794403 565.585693,430.932831 
	C562.047302,430.953766 558.508850,430.974701 554.547241,430.608795 
	C554.608521,429.169678 554.950745,428.019196 555.598938,427.079803 
	C564.497070,414.184296 566.052124,399.678558 564.795715,384.620575 
	C564.579712,382.031921 563.406555,379.523132 562.675537,376.977448 
	C557.224548,390.709656 550.209595,402.107361 536.023682,407.730377 
	C538.032898,394.612640 539.413330,381.850250 535.076294,369.165649 
	C530.768066,356.565186 523.024780,346.373779 513.585571,337.123749 
	C512.998596,344.135834 513.698853,351.015656 512.798401,357.679169 
	C511.926971,364.127991 510.139801,370.690857 507.424713,376.591583 
	C504.151550,383.705200 497.996918,387.714111 489.695465,386.940796 
	C481.554535,386.182465 476.586823,381.146698 473.185303,374.154602 
	C472.388977,372.517731 471.461670,370.944580 470.360352,368.909119 
	C461.147247,386.731201 463.432556,413.205505 480.017639,430.783752 
	C474.339325,430.882233 468.661041,430.980743 462.446472,430.711243 
	C452.766388,419.663452 446.905487,407.291779 445.664551,393.394287 
	C444.709290,382.696320 445.633850,371.830505 445.722534,361.039307 
	C449.499817,351.159088 453.063538,341.189453 457.146606,331.437256 
	C459.116608,326.732025 462.019318,322.409943 464.607880,317.977539 
	C465.101624,317.132019 466.102081,316.582428 466.871582,315.893799 
	C468.713684,322.337494 470.053558,328.464691 472.271057,334.255829 
	C473.660492,337.884369 475.940338,341.404053 478.584167,344.267700 
	C482.926880,348.971466 487.978302,347.863007 490.085297,341.747314 
	C491.296906,338.230560 491.707947,334.283386 491.702057,330.531189 
	C491.685577,320.062683 490.355133,309.514313 491.273071,299.150665 
	C492.090912,289.916748 495.101074,280.857544 497.398376,271.785736 
	C498.114136,268.959259 499.660065,266.342987 500.986328,263.306488 
	C509.860474,245.479660 523.819763,234.466614 543.169312,229.763565 
	C541.862793,231.919174 540.280151,233.956909 539.300476,236.252045 
	C536.083252,243.789230 533.084839,251.419785 530.003906,259.424316 
z"/>
<path fill="#1C2E3B" opacity="1.000000" stroke="none" 
	d="
M463.000763,575.971680 
	C463.000763,535.494385 462.998901,495.511536 463.002411,455.528687 
	C463.003113,447.608582 464.763153,445.849487 472.649567,445.867096 
	C481.145294,445.886078 489.646790,446.111725 498.134247,445.859802 
	C502.216553,445.738647 504.519073,447.219727 506.308990,450.834442 
	C515.809082,470.019775 525.496155,489.112518 535.124451,508.234283 
	C535.491699,508.963623 535.921631,509.661407 536.961182,511.509857 
	C537.154297,509.143158 537.353333,507.841125 537.352722,506.539185 
	C537.344360,489.547455 537.301025,472.555725 537.281250,455.563995 
	C537.272339,447.906281 539.302490,445.830505 547.082153,445.770569 
	C554.411438,445.714111 561.742554,445.740143 569.071411,445.841400 
	C574.810059,445.920685 576.978088,448.041260 576.981934,453.679565 
	C577.011719,496.827728 577.013245,539.975891 576.975952,583.124023 
	C576.971191,588.663330 573.901672,591.715149 568.309814,591.792297 
	C560.648010,591.898071 552.964966,591.497070 545.326416,591.932922 
	C539.212585,592.281860 535.859070,589.583191 533.272034,584.390930 
	C524.763000,567.313049 515.988831,550.367188 507.310211,533.373779 
	C506.202759,531.205322 505.057861,529.055969 502.948181,527.034729 
	C502.948181,530.741943 502.946838,534.449097 502.948425,538.156311 
	C502.954681,552.983093 502.986816,567.809937 502.957458,582.636658 
	C502.944153,589.365540 500.732452,591.545593 493.924622,591.613403 
	C486.595123,591.686340 479.264893,591.700195 471.934967,591.704468 
	C464.929321,591.708496 463.005524,589.805481 463.000916,582.963196 
	C462.999451,580.797485 463.000732,578.631775 463.000763,575.971680 
z"/>
<path fill="#1C2D3B" opacity="1.000000" stroke="none" 
	d="
M571.010864,648.000000 
	C571.016541,637.004822 571.029053,626.509705 571.027771,616.014526 
	C571.026917,608.974548 573.032227,606.917297 580.257385,606.860779 
	C588.419067,606.796875 596.596802,607.149414 604.738342,606.739441 
	C610.151367,606.466919 613.246765,608.351257 615.601807,613.267639 
	C623.187805,629.104553 631.166992,644.753235 639.023682,660.460022 
	C640.953064,664.317139 642.992981,668.118896 645.527161,672.994995 
	C645.758728,670.816528 645.985962,669.679932 645.984375,668.543640 
	C645.960022,651.218506 645.892700,633.893372 645.864258,616.568237 
	C645.850525,608.202515 647.341187,606.781860 655.848145,606.802124 
	C663.011414,606.819214 670.175110,606.764282 677.337830,606.826782 
	C683.833557,606.883484 685.069580,608.214905 685.084167,614.882202 
	C685.168823,653.696777 685.240540,692.511414 685.345154,731.325928 
	C685.357300,735.821655 685.570496,740.316406 685.646179,744.812378 
	C685.730713,749.832214 683.300781,752.711792 678.234802,752.808411 
	C668.576904,752.992676 658.888977,753.213989 649.267578,752.588501 
	C646.813171,752.429016 643.630615,749.642700 642.365051,747.232422 
	C633.029419,729.451538 624.098877,711.458069 615.028503,693.537659 
	C613.993530,691.492798 612.882996,689.486084 611.240051,686.393555 
	C611.038391,688.521179 610.857971,689.529846 610.859802,690.538147 
	C610.892212,708.362915 610.961853,726.187683 610.989014,744.012451 
	C610.999451,750.871826 608.891602,752.990173 602.161560,752.993042 
	C594.831543,752.996155 587.501343,752.989380 580.171509,752.949402 
	C572.750305,752.908875 571.001587,751.178162 571.001892,743.958313 
	C571.003479,712.138916 571.008301,680.319458 571.010864,648.000000 
z"/>
<path fill="#1D2E3C" opacity="1.000000" stroke="none" 
	d="
M341.351746,614.600830 
	C341.568451,608.902954 344.562836,606.963684 349.531525,606.975098 
	C372.855835,607.028931 396.181946,606.830505 419.504181,607.056946 
	C436.636688,607.223267 448.214569,616.176453 450.585968,631.524841 
	C451.667999,638.528015 450.944550,645.813660 450.994720,652.971558 
	C451.033264,658.469177 451.072174,663.968506 450.985626,669.465088 
	C450.792084,681.759155 444.580017,690.615295 433.106873,695.092224 
	C431.433197,695.745361 429.745239,696.361755 427.571808,697.180542 
	C434.322235,709.361389 440.912567,721.216980 447.462524,733.094910 
	C449.386322,736.583557 451.337830,740.068909 453.021973,743.674683 
	C455.225494,748.392578 452.856445,752.699768 447.701355,752.807800 
	C437.210999,753.027649 426.711884,752.826721 416.216400,752.805237 
	C412.107208,752.796814 410.608490,749.666260 409.099518,746.707642 
	C402.309174,733.394043 395.608063,720.034912 388.829132,706.715393 
	C387.668732,704.435425 386.286743,702.268311 384.016022,700.315735 
	C383.914459,701.869690 383.727539,703.423462 383.724792,704.977539 
	C383.701965,717.972595 383.752991,730.967896 383.697235,743.962708 
	C383.668671,750.626892 381.217377,752.960999 374.628235,752.951050 
	C366.132141,752.938171 357.634796,753.035278 349.140350,752.917786 
	C343.429962,752.838867 341.075226,750.188904 341.087708,744.488586 
	C341.182159,701.339355 341.259491,658.190186 341.351746,614.600830 
M383.800873,641.904846 
	C383.800873,650.639160 383.800873,659.373535 383.800873,668.489746 
	C390.841644,668.489746 396.974609,668.606140 403.100159,668.443420 
	C406.437256,668.354736 408.144379,666.512512 408.062866,662.943726 
	C407.918365,656.618408 407.916168,650.286255 408.029694,643.960083 
	C408.094879,640.330017 406.242706,638.744324 402.923920,638.630737 
	C397.933228,638.460022 392.927765,638.268433 387.948700,638.506409 
	C386.564270,638.572510 385.250763,640.123230 383.800873,641.904846 
z"/>
<path fill="#1C2E3C" opacity="1.000000" stroke="none" 
	d="
M812.174988,537.000122 
	C812.116211,544.992920 812.219421,552.491211 811.966064,559.977417 
	C811.410889,576.378296 802.004761,588.046387 786.050415,590.839050 
	C767.246765,594.130493 748.227600,594.184998 729.402954,590.999756 
	C713.714966,588.345337 704.734314,578.851135 704.039795,562.878906 
	C703.093079,541.105286 703.468750,519.271484 703.414429,497.463135 
	C703.394958,489.643341 703.561707,481.810242 704.015259,474.004822 
	C704.885742,459.025085 715.396423,446.930511 730.462341,446.332031 
	C750.007263,445.555695 769.664124,446.120941 789.204956,447.265991 
	C801.199768,447.968903 811.733337,461.372253 811.932251,474.552887 
	C812.243774,495.198456 812.116577,515.850647 812.174988,537.000122 
M746.005859,494.525146 
	C746.009827,511.189789 746.123535,527.855347 745.984436,544.518799 
	C745.865112,558.812927 745.297607,560.426208 762.077087,559.907715 
	C768.203003,559.718567 770.170776,557.766541 770.176453,551.741577 
	C770.188538,538.910095 770.098328,526.078491 770.077942,513.246948 
	C770.063660,504.249176 770.397156,495.234863 769.908081,486.264343 
	C769.775513,483.831848 767.427185,479.695892 765.739075,479.505554 
	C760.093201,478.869049 753.768616,478.326080 748.685364,480.288910 
	C743.579407,482.260468 746.769470,488.646881 746.014771,493.038910 
	C745.986938,493.200867 746.010193,493.371582 746.005859,494.525146 
z"/>
<path fill="#1C2E3C" opacity="1.000000" stroke="none" 
	d="
M430.979370,459.040039 
	C437.619202,497.920990 444.242126,536.370728 450.824402,574.827454 
	C451.328705,577.773743 451.663849,580.761108 451.868622,583.743713 
	C452.199646,588.564575 449.877289,591.516541 445.050873,591.618774 
	C435.398163,591.823181 425.735657,591.717957 416.080017,591.563660 
	C411.618896,591.492493 409.125580,589.171631 408.760315,584.483032 
	C408.373169,579.513367 407.408966,574.586975 407.063995,569.616211 
	C406.819031,566.087097 405.313416,564.505554 401.812805,564.534241 
	C395.152679,564.588806 388.491516,564.578491 381.831268,564.530396 
	C378.627380,564.507324 376.944550,565.894836 376.651855,569.181396 
	C376.209320,574.149475 375.517059,579.094849 375.028137,584.059448 
	C374.523010,589.188843 372.624420,591.349121 367.532867,591.456360 
	C357.710938,591.663269 347.880798,591.763611 338.059357,591.596741 
	C332.636993,591.504578 330.449646,588.255981 331.326447,582.936462 
	C337.592712,544.918701 343.811462,506.893188 350.050751,468.871002 
	C350.964966,463.299805 351.926300,457.736359 352.831757,452.163788 
	C353.488190,448.123688 355.939178,445.852264 359.907959,445.833557 
	C381.055817,445.733795 402.204407,445.759674 423.352631,445.801697 
	C427.503357,445.809937 428.964966,448.862671 429.833984,452.237061 
	C430.370270,454.319489 430.590240,456.483307 430.979370,459.040039 
M388.832703,487.236176 
	C387.171539,497.714813 385.462738,508.186218 383.861023,518.673889 
	C381.759521,532.434021 381.795807,532.439575 395.371368,532.123230 
	C401.582306,531.978577 401.944305,531.666382 400.882935,525.456970 
	C398.788483,513.203308 396.560303,500.972321 394.358368,488.737213 
	C393.709320,485.130829 392.962921,481.541962 392.261139,477.945099 
	C391.722137,477.934753 391.183136,477.924408 390.644135,477.914062 
	C390.086823,480.738861 389.529480,483.563629 388.832703,487.236176 
z"/>
<path fill="#1C2E3B" opacity="1.000000" stroke="none" 
	d="
M273.941162,726.999268 
	C269.454468,726.999268 265.456879,726.993469 261.459259,727.000610 
	C255.598526,727.011047 254.306671,728.227722 254.019409,734.248291 
	C253.852829,737.739929 254.033508,741.255615 253.729370,744.731689 
	C253.208435,750.685242 250.603256,752.966492 244.717712,752.979126 
	C235.723251,752.998474 226.728394,753.044617 217.734390,752.981140 
	C211.456680,752.936768 208.724991,749.609985 209.827591,743.362976 
	C217.100983,702.153564 224.408188,660.950134 231.693771,619.742920 
	C231.895859,618.599976 231.940704,617.429810 232.123856,616.282715 
	C233.416031,608.189209 234.870209,606.993225 243.211563,606.997437 
	C262.200226,607.006958 281.188873,606.993835 300.177521,607.003235 
	C305.908173,607.006104 307.865479,608.611267 308.836975,614.313354 
	C314.916412,649.996887 320.955658,685.687256 327.029968,721.371704 
	C328.366943,729.225952 329.861328,737.053894 331.150879,744.915649 
	C331.955811,749.822998 329.794342,752.779236 324.889618,752.876282 
	C314.567261,753.080566 304.237244,752.979797 293.911438,752.887329 
	C290.220245,752.854309 288.042145,750.744263 287.571259,747.107483 
	C287.016052,742.820007 286.596954,738.513794 286.182343,734.209534 
	C285.501282,727.139160 285.385101,727.008484 278.427887,726.999512 
	C277.095337,726.997803 275.762817,726.999268 273.941162,726.999268 
M279.205658,685.041016 
	C276.560730,669.965820 273.915802,654.890686 271.173828,639.262390 
	C269.994324,640.198608 269.560760,640.365295 269.519348,640.600891 
	C266.615967,657.109741 263.745697,673.624451 260.867798,690.137817 
	C260.253510,693.662659 261.885681,695.050049 265.280792,694.981995 
	C268.774017,694.911987 272.273865,694.882874 275.763794,695.018127 
	C279.629425,695.167847 280.891937,693.401794 280.079498,689.776978 
	C279.789520,688.483215 279.620178,687.162354 279.205658,685.041016 
z"/>
<path fill="#1C2E3B" opacity="1.000000" stroke="none" 
	d="
M719.309265,609.250305 
	C722.086426,608.259033 724.569092,606.949768 727.060242,606.933289 
	C746.215454,606.806274 765.372192,606.939148 784.528503,606.970642 
	C790.273499,606.980103 792.826355,608.844971 793.806763,614.437500 
	C797.592590,636.031982 801.190674,657.659607 805.012695,679.247559 
	C808.776245,700.505371 812.667358,721.741089 816.629150,742.962891 
	C817.885498,749.692627 815.594177,752.941528 808.862000,752.981140 
	C799.700195,753.035095 790.536865,752.894470 781.375671,752.985535 
	C776.498474,753.034058 773.900635,750.657410 773.307312,746.002869 
	C772.760925,741.715515 772.368408,737.406189 772.004761,733.098450 
	C771.656494,728.972351 769.910950,726.754822 765.358093,726.939209 
	C759.204407,727.188416 753.018921,727.256042 746.873657,726.918091 
	C741.960938,726.647949 740.358582,729.126892 740.054077,733.377502 
	C739.756714,737.527893 739.473816,741.680969 739.070496,745.821716 
	C738.601318,750.637878 736.136230,752.943726 731.281433,752.977478 
	C722.119629,753.041138 712.956909,753.010864 703.794800,752.969238 
	C697.362305,752.940002 694.996033,750.304932 696.035706,743.891541 
	C699.437988,722.904114 703.027466,701.947144 706.437012,680.960876 
	C710.031128,658.838562 713.475342,636.691956 717.075928,614.570679 
	C717.359009,612.831482 718.354370,611.208252 719.309265,609.250305 
M757.417358,645.063599 
	C756.965088,643.275757 756.512817,641.487854 756.060547,639.700012 
	C755.588379,639.714233 755.116150,639.728394 754.643982,639.742615 
	C754.005920,643.406250 753.365295,647.069458 752.730225,650.733582 
	C750.544373,663.345642 748.315430,675.950378 746.197021,688.573730 
	C745.297729,693.932556 746.285583,694.937805 751.938660,694.976196 
	C754.104553,694.990906 756.270752,694.967285 758.436768,694.961548 
	C765.705750,694.942322 766.107788,694.425354 764.833618,687.151123 
	C762.424133,673.395630 760.046204,659.634521 757.417358,645.063599 
z"/>
<path fill="#1C2E3C" opacity="1.000000" stroke="none" 
	d="
M277.984039,445.000153 
	C286.522186,445.978485 294.817383,446.032745 302.544067,448.155914 
	C313.610138,451.196686 320.062500,459.281067 321.286652,470.886444 
	C321.843994,476.170166 321.752075,481.526184 321.868744,486.851288 
	C321.962128,491.115570 319.482208,493.618866 315.540497,493.747711 
	C305.553955,494.074005 295.551056,494.051270 285.557526,493.931946 
	C281.946014,493.888824 280.446777,491.550446 280.437317,487.941559 
	C280.413544,478.860321 279.679596,478.208252 270.394531,478.073212 
	C268.562042,478.046539 266.728485,477.993774 264.896851,478.028351 
	C261.274170,478.096741 257.276031,477.499603 255.961426,482.319489 
	C254.296463,488.423798 256.038177,493.934265 260.968292,496.013458 
	C267.989075,498.974396 275.282318,501.282379 282.406250,504.007660 
	C289.526733,506.731628 296.699554,509.365997 303.640045,512.502869 
	C315.830475,518.012512 323.315948,527.136353 323.447327,541.016418 
	C323.525970,549.327332 323.687866,557.725647 322.654755,565.939087 
	C320.951447,579.480774 312.700226,588.147034 298.246918,590.606812 
	C277.787109,594.088867 257.102234,594.437256 236.708817,589.936768 
	C221.389328,586.555969 214.037933,576.593567 213.995026,560.935059 
	C213.985443,557.436829 213.848450,553.937256 213.909500,550.440796 
	C214.005478,544.945312 216.074234,542.881042 221.411224,542.882996 
	C230.407852,542.886292 239.408508,543.109741 248.399460,542.898865 
	C253.083755,542.789062 254.648727,545.107178 254.703735,549.224060 
	C254.723740,550.720764 254.519257,552.220520 254.542572,553.716980 
	C254.607437,557.878784 256.391083,560.239990 260.930023,560.079529 
	C265.589325,559.914734 270.258606,560.053345 274.922974,560.004761 
	C278.982880,559.962463 280.896332,557.906616 281.032715,553.797058 
	C281.357452,544.013123 280.147186,541.682983 270.737793,538.143616 
	C258.795380,533.651367 246.587845,529.856934 234.687256,525.262634 
	C220.741959,519.879028 212.739517,510.177917 213.732941,494.371399 
	C214.118881,488.230621 213.656662,482.040497 213.916855,475.887054 
	C214.652771,458.483673 225.107956,447.367676 242.553482,446.103455 
	C254.163727,445.262085 265.840271,445.335938 277.984039,445.000153 
z"/>
<path fill="#1D2E3C" opacity="1.000000" stroke="none" 
	d="
M506.199951,699.415527 
	C506.189026,704.045227 506.406006,708.224854 506.142395,712.373962 
	C505.840668,717.123718 507.624817,718.882080 512.490051,718.777161 
	C525.316040,718.500732 538.151184,718.647156 550.982727,718.638550 
	C557.783813,718.633972 559.070923,719.906738 559.183228,726.826965 
	C559.283386,732.991638 559.402344,739.157837 559.363647,745.322388 
	C559.332153,750.335144 557.069336,752.823975 552.090393,752.838379 
	C525.094788,752.916626 498.098663,752.913391 471.103180,752.813599 
	C465.251923,752.791992 463.298767,750.346130 463.291718,743.728333 
	C463.248627,703.233459 463.235168,662.738647 463.209717,622.243774 
	C463.207947,619.411560 463.044525,616.570740 463.212463,613.749146 
	C463.470093,609.421631 465.811798,607.016479 470.257660,607.007996 
	C497.419891,606.955994 524.582153,606.883484 551.744263,606.926880 
	C556.660400,606.934753 558.923340,609.420105 558.993042,614.381470 
	C559.082031,620.712585 559.097351,627.046448 559.017822,633.377563 
	C558.947998,638.938171 556.756348,640.984253 551.027771,640.994263 
	C538.196045,641.016663 525.364197,640.983459 512.532532,641.008972 
	C506.595703,641.020752 506.052246,641.617371 506.032867,647.677917 
	C505.985504,662.514648 505.985443,662.522339 520.734619,662.605713 
	C527.733643,662.645264 534.732971,662.619141 541.731750,662.677795 
	C548.776733,662.736816 549.980774,663.935730 549.992859,670.776062 
	C550.002563,676.275391 550.002747,681.774841 549.960999,687.273926 
	C549.909912,693.996887 548.180481,695.682190 541.259583,695.698730 
	C531.260986,695.722656 521.261963,695.655945 511.263763,695.722717 
	C509.024139,695.737671 506.301208,695.392578 506.199951,699.415527 
z"/>
<path fill="#1C2D3B" opacity="1.000000" stroke="none" 
	d="
M686.262939,446.052399 
	C688.062744,448.547302 690.597534,450.973785 690.619934,453.423279 
	C690.942261,488.720520 691.180420,524.022949 690.891235,559.319580 
	C690.733459,578.584167 679.529114,590.602417 660.267883,591.822510 
	C645.711609,592.744446 631.015808,592.650452 616.445190,591.854248 
	C598.874084,590.894104 588.599670,579.599854 588.045471,562.072083 
	C587.803406,554.419556 587.895264,546.753601 587.970154,539.095032 
	C588.017700,534.232727 590.149292,532.068787 594.916382,532.024231 
	C604.240540,531.937012 613.566467,532.043701 622.890503,531.948364 
	C627.359070,531.902649 629.215027,534.071106 629.170471,538.370911 
	C629.127319,542.532715 629.141052,546.699463 629.295471,550.857910 
	C629.544067,557.551453 632.312622,559.648254 640.397400,559.470276 
	C646.807373,559.329224 648.965088,557.210693 648.974121,550.575928 
	C649.017700,518.604736 648.998108,486.633453 648.997620,454.662201 
	C648.997498,446.813385 650.304565,445.513306 658.367798,445.601166 
	C667.522095,445.700897 676.675720,445.860901 686.262939,446.052399 
z"/>
<path fill="#F1B022" opacity="1.000000" stroke="none" 
	d="
M480.477661,430.856689 
	C463.432556,413.205505 461.147247,386.731201 470.360352,368.909119 
	C471.461670,370.944580 472.388977,372.517731 473.185303,374.154602 
	C476.586823,381.146698 481.554535,386.182465 489.695465,386.940796 
	C497.996918,387.714111 504.151550,383.705200 507.424713,376.591583 
	C510.139801,370.690857 511.926971,364.127991 512.798401,357.679169 
	C513.698853,351.015656 512.998596,344.135834 513.585571,337.123749 
	C523.024780,346.373779 530.768066,356.565186 535.076294,369.165649 
	C539.413330,381.850250 538.032898,394.612640 536.023682,407.730377 
	C550.209595,402.107361 557.224548,390.709656 562.675537,376.977448 
	C563.406555,379.523132 564.579712,382.031921 564.795715,384.620575 
	C566.052124,399.678558 564.497070,414.184296 555.598938,427.079803 
	C554.950745,428.019196 554.608521,429.169678 554.080566,430.569946 
	C529.670593,430.921783 505.304169,430.925720 480.477661,430.856689 
z"/>
<path fill="#1D2E3B" opacity="1.000000" stroke="none" 
	d="
M445.455078,361.203949 
	C445.633850,371.830505 444.709290,382.696320 445.664551,393.394287 
	C446.905487,407.291779 452.766388,419.663452 461.982697,430.680664 
	C442.136902,431.018066 422.218597,431.018066 401.582947,431.018066 
	C407.171234,401.783356 421.755157,378.840546 445.455078,361.203949 
z"/>
<path fill="#1D2D3B" opacity="1.000000" stroke="none" 
	d="
M566.003662,430.970001 
	C581.877808,410.794403 585.703979,387.737946 581.532410,362.353882 
	C591.224121,367.516785 598.332031,375.878662 604.960754,384.591400 
	C615.277283,398.151398 621.910034,413.365387 624.349792,431.007172 
	C604.847168,431.007172 585.634399,431.007172 566.003662,430.970001 
z"/>
<path fill="#E1D4C0" opacity="1.000000" stroke="none" 
	d="
M383.852783,641.448853 
	C385.250763,640.123230 386.564270,638.572510 387.948700,638.506409 
	C392.927765,638.268433 397.933228,638.460022 402.923920,638.630737 
	C406.242706,638.744324 408.094879,640.330017 408.029694,643.960083 
	C407.916168,650.286255 407.918365,656.618408 408.062866,662.943726 
	C408.144379,666.512512 406.437256,668.354736 403.100159,668.443420 
	C396.974609,668.606140 390.841644,668.489746 383.800873,668.489746 
	C383.800873,659.373535 383.800873,650.639160 383.852783,641.448853 
z"/>
<path fill="#E4D7C1" opacity="1.000000" stroke="none" 
	d="
M746.007812,494.031677 
	C746.010193,493.371582 745.986938,493.200867 746.014771,493.038910 
	C746.769470,488.646881 743.579407,482.260468 748.685364,480.288910 
	C753.768616,478.326080 760.093201,478.869049 765.739075,479.505554 
	C767.427185,479.695892 769.775513,483.831848 769.908081,486.264343 
	C770.397156,495.234863 770.063660,504.249176 770.077942,513.246948 
	C770.098328,526.078491 770.188538,538.910095 770.176453,551.741577 
	C770.170776,557.766541 768.203003,559.718567 762.077087,559.907715 
	C745.297607,560.426208 745.865112,558.812927 745.984436,544.518799 
	C746.123535,527.855347 746.009827,511.189789 746.007812,494.031677 
z"/>
<path fill="#DFD1BE" opacity="1.000000" stroke="none" 
	d="
M388.902405,486.812317 
	C389.529480,483.563629 390.086823,480.738861 390.644135,477.914062 
	C391.183136,477.924408 391.722137,477.934753 392.261139,477.945099 
	C392.962921,481.541962 393.709320,485.130829 394.358368,488.737213 
	C396.560303,500.972321 398.788483,513.203308 400.882935,525.456970 
	C401.944305,531.666382 401.582306,531.978577 395.371368,532.123230 
	C381.795807,532.439575 381.759521,532.434021 383.861023,518.673889 
	C385.462738,508.186218 387.171539,497.714813 388.902405,486.812317 
z"/>
<path fill="#DFD1BE" opacity="1.000000" stroke="none" 
	d="
M279.300720,685.447449 
	C279.620178,687.162354 279.789520,688.483215 280.079498,689.776978 
	C280.891937,693.401794 279.629425,695.167847 275.763794,695.018127 
	C272.273865,694.882874 268.774017,694.911987 265.280792,694.981995 
	C261.885681,695.050049 260.253510,693.662659 260.867798,690.137817 
	C263.745697,673.624451 266.615967,657.109741 269.519348,640.600891 
	C269.560760,640.365295 269.994324,640.198608 271.173828,639.262390 
	C273.915802,654.890686 276.560730,669.965820 279.300720,685.447449 
z"/>
<path fill="#DFD1BE" opacity="1.000000" stroke="none" 
	d="
M757.536255,645.469727 
	C760.046204,659.634521 762.424133,673.395630 764.833618,687.151123 
	C766.107788,694.425354 765.705750,694.942322 758.436768,694.961548 
	C756.270752,694.967285 754.104553,694.990906 751.938660,694.976196 
	C746.285583,694.937805 745.297729,693.932556 746.197021,688.573730 
	C748.315430,675.950378 750.544373,663.345642 752.730225,650.733582 
	C753.365295,647.069458 754.005920,643.406250 754.643982,639.742615 
	C755.116150,639.728394 755.588379,639.714233 756.060547,639.700012 
	C756.512817,641.487854 756.965088,643.275757 757.536255,645.469727 
z"/>
</svg>